<?xml version="1.0" encoding="UTF-8"?>
<svg id="Capa_2" data-name="Capa 2" xmlns="http://www.w3.org/2000/svg" viewBox="0 0 600 600">
  <defs>
    <style>
      .cls-1 {
        fill: #f1ccdf;
      }

      .cls-2 {
        fill: #da7ba9;
      }
    </style>
  </defs>
  <path class="cls-1" d="M139.87,370.65c20.14-13.59,47.79-15.38,77.14-5.32,.28-37.47,17.51-69.96,46.57-86.53,27.48-15.67,60.78-14.66,91.31,2.19,.37-37.02,12.86-67.36,35.87-86.39,18.32-15.16,42.48-22.05,68.37-19.94V94.08c0-25.81-20.92-46.74-46.74-46.74H175.92c-25.81,0-46.74,20.92-46.74,46.74V379.79c3.51-3.77,7.17-6.77,10.69-9.14Z"/>
  <path class="cls-2" d="M400.32,206.15c-22.09,18.27-32.75,49.58-30.02,88.16,.21,2.9-1.28,5.65-3.82,7.07-2.53,1.42-5.66,1.25-8.02-.44-28.76-20.53-61.45-23.94-87.45-9.12-26.93,15.35-41.71,47.54-38.59,84,.23,2.64-.95,5.2-3.1,6.74-2.15,1.54-4.95,1.83-7.38,.77-28.12-12.31-55.67-12.41-73.68-.26-8.92,6.02-15.33,14.81-19.08,25.97v96.86c0,25.81,20.92,46.74,46.74,46.74h236.48c25.81,0,46.74-20.92,46.74-46.74V189.66c-22.56-2.21-43.02,3.42-58.81,16.49Zm-67.35,317.83h-77.63c-4.71,0-8.52-3.81-8.52-8.52s3.81-8.52,8.52-8.52h77.63c4.71,0,8.52,3.81,8.52,8.52s-3.81,8.52-8.52,8.52Z"/>
</svg>